<?xml version="1.0" encoding="utf-8"?>
<!-- Generator: Adobe Illustrator 19.0.0, SVG Export Plug-In . SVG Version: 6.00 Build 0)  -->
<svg version="1.1" id="Layer_1" xmlns="http://www.w3.org/2000/svg" xmlns:xlink="http://www.w3.org/1999/xlink" x="0px" y="0px"
	 viewBox="0 0 3195.7 2000" style="enable-background:new 0 0 3195.7 2000;" xml:space="preserve">
<style type="text/css">
	.st0{fill:#FFFFFF;}
	.st1{fill:#EBF3FA;}
	.st2{fill:#4F75BA;}
	.st3{fill:#739AF0;}
	.st4{fill:#FFB27D;}
	.st5{fill:#EA8E50;}
	.st6{fill:#992525;}
	.st7{fill:#233862;}
	.st8{fill:#2B478B;}
	.st9{fill:#FFB07B;}
	.st10{fill:#BC3F3F;}
	.st11{fill:#F99746;}
	.st12{fill:#2C3A64;}
	.st13{fill:#ED985F;}
	.st14{fill:#253D78;}
	.st15{fill:#ED7D2B;}
	.st16{fill:#ED975D;}
	.st17{fill:#163560;}
	.st18{fill:#11294A;}
	.st19{fill:#2E3552;}
</style>
<rect class="st0" width="3195.7" height="2000"/>
<g>
	<path class="st1" d="M368.9,1712.2c0,0-337.2-358.5-107.8-776.1c177-322.1,605.1-264.7,824.8-128.5c93.6,58,294.6-48.4,549.6-371.6
		c296-375.2,1441.9-146.3,1244,570.6c-95.8,346.9,291.5,359.5,94.2,706.3L368.9,1712.2z"/>
	<g>
		<g>
			<g>
				<path class="st2" d="M2769.1,1709.3h-855.5c-85.6,0-155.1-69.4-155.1-155.1V813.6c0-78.6,15.4-155,45.8-226.9
					c29.4-69.4,71.4-131.7,124.9-185.2c53.5-53.5,115.8-95.5,185.2-124.9c62-26.2,47.1-42.1,114.3-45.8
					c10.8-0.6,101.7-0.1,112.6-0.1c78.6,0,155,15.4,226.9,45.8c69.4,29.4,131.7,71.4,185.2,124.9c53.5,53.5,95.5,115.8,124.9,185.2
					c30.4,71.9,45.8,148.2,45.8,226.9v740.7C2924.2,1639.9,2854.8,1709.3,2769.1,1709.3z M1940.7,844.5h801.4v-30.9
					c0-220.9-179.7-400.7-400.7-400.7s-400.7,179.7-400.7,400.7V844.5z"/>
			</g>
			<g>
				<path class="st3" d="M2665.9,1709.3h-855.5c-85.6,0-155.1-69.4-155.1-155.1V813.6c0-78.6,15.4-155,45.8-226.9
					c29.4-69.4,71.4-131.7,124.9-185.2c53.5-53.5,115.8-95.5,185.2-124.9c71.9-30.4,148.2-45.8,226.9-45.8
					c78.6,0,155,15.4,226.9,45.8c69.4,29.4,131.7,71.4,185.2,124.9c53.5,53.5,95.5,115.8,124.9,185.2
					c30.4,71.9,45.8,148.2,45.8,226.9v740.7C2821,1639.9,2751.6,1709.3,2665.9,1709.3z M1837.5,844.5h801.4v-30.9
					c0-220.9-179.7-400.7-400.7-400.7s-400.7,179.7-400.7,400.7V844.5z"/>
			</g>
			<path class="st2" d="M2310.3,1134.7c0-18-6.6-34.4-17.5-47.1c-10-14.8-30.7-25-54.6-25s-44.6,10.2-54.6,25
				c-10.9,12.6-17.5,29.1-17.5,47.1c0,32.3,21.3,59.7,50.6,68.8v109.2c0,8.8,9.6,16,21.5,16s21.5-7.1,21.5-16v-109.2
				C2289,1194.4,2310.3,1167.1,2310.3,1134.7z"/>
		</g>
		<g>
			<path class="st4" d="M1279.7,1042.5c-1.4,9.3-11.9,20-23.2,28c-12.1,8.7-17,17.5-21.3,22c-1.6,1.8-2.6,2.8-2.6,2.8l-13-15.1
				c0,0,0.2-0.1,0.6-0.6c2.9-3.2,10.3-11,15.2-19.9c10.7-19.7,25.8-22.6,25.8-22.6S1275.5,1039.3,1279.7,1042.5z"/>
			<g>
				<g>
					<path class="st5" d="M610.2,1231.6l8.8,7.1c0,0,24-8.6,29.4,19.9c0,0,1.4,12.1-6.2,12.2c-7.7,0-4.5-1.3-15.4-1
						c-10.9,0.3-19.9-5.4-21.5-14.3l-5.2-7.5L610.2,1231.6z"/>
					<path class="st6" d="M609.2,1246.9c7-7.3,6.4-12.7,6.4-12.7s-80.9-66.2-89.1-71.6c-5.6-3.7-62-57.7-93-88.7
						c-14.9-14.9-30.9-9.8-50.5-4.2l-16.1,4.6c-19.5,5.6-24.5,32.8-8.6,46.1c45,37.3,119.9,79.2,133.9,88
						c34.8,21.9,102.8,47.9,102.8,47.9S603.2,1253.1,609.2,1246.9z"/>
				</g>
				<path class="st7" d="M701.5,1653.9c0,0,19.6,14.7,49.7,6.9c0,0,24.3-5.5,29.6,6.6c0,0-37.2,18.9-46.6,24.1
					c-7.1,3.9-14.5,10-19.7,14.8c-4.1,3.8-10.6,3.3-14.1-1.1c-1.6-2-3.5-4.4-5.6-7.2c-5.7-7.8-19.1-32.9-19.1-32.9L701.5,1653.9z"/>
				<path class="st8" d="M713,1646.4c0,0-12,27.6-39.6,22.5c0,0-56.3-46.5-95-94.8c-12.5-15.7-23.2-31.6-29.5-46.1
					c-25.6-59.3-94.8-147.8-138.7-192.6l110-39.8c0,0,35.2,70.9,82.1,157.9C636.2,1516.2,676,1587.3,713,1646.4z"/>
				<path class="st7" d="M602.4,1453.5l-23.9,120.6c-12.5-15.7-23.2-31.6-29.5-46.1c-25.6-59.3-94.8-147.8-138.7-192.6l110-39.8
					C520.3,1295.5,555.5,1366.4,602.4,1453.5z"/>
				<path class="st7" d="M512.5,1669.9c0,0-1.2,22,25.5,24.9c0,0,15.2,0.1,15.3,14.1l-77.5,0.2c0,0-2.2-5.6-2.8-17.7
					c-0.4-9.3,9-33.6,9-33.6L512.5,1669.9z"/>
				<path class="st8" d="M484.2,1295.5c0,0,49,53.8,80.1,150.9c16.9,52.8-31,185.5-40.4,231.6c0,0-32.2,2.7-54.2-5.8
					c0,0-1.7-95.2,11.2-168.6c7.2-41.1-64.5-87.9-95.9-162.1c-21.3-50.5,4.6-49.6,36.5-50.8L484.2,1295.5z"/>
				<path class="st9" d="M427.6,1055.3c-27.3,15.4-83.1,1.2-83.1,1.2s22.7-25.9,12.4-67.6l21.4,10.9l23,11.7c0,0,1.5,7.4,2.5,20.6
					c0.3,3.4,0.5,7.2,0.7,11.4C418.5,1047.6,427.6,1055.3,427.6,1055.3z"/>
				<path class="st10" d="M527.6,1292.8c0,4.8-5.5,7.1-6.7,7.3c-11,2-41.7,14-69.4,16.7c-23.3,2.4-44.9,0.1-68.7-4.6
					c-3.1-0.6-10.5-2.6-11.1-5.6c-0.7-3.3-91.6-185.5-20.9-263.7c1.7-1.8,15.6,1.5,28.4,4.5c11.8,2.8,22.6,1.2,32.3-2.6l12,6.3
					c14.7,8.2,42.5,37.3,45.8,60.1c1.7,11.6,8.3,20.2,10.2,30.4c0.7,3.8,1.4,7.5,2.2,11.1c1.4,7.1,2.9,13.8,4.5,20.2
					c4.2,17.3,8.5,32.1,12.9,45c4.6,13.6,9.1,25,13.1,34.5c5.2,12.3,9.6,21.5,12.4,28.5C526.5,1285.7,527.6,1289.6,527.6,1292.8z"/>
				<path class="st6" d="M524.5,1280.8c-128.4-60.5-172.9-176.7-172.9-176.7s104.3,38.5,130.1,48.5c1.4,7.1,2.9,13.8,4.5,20.2
					c4.2,17.3,8.5,32.1,12.9,45c4.6,13.6,9.1,25,13.1,34.5C517.4,1264.5,521.8,1273.7,524.5,1280.8z"/>
				<g>
					<g>
						<g>
							<path class="st11" d="M687.4,1250.9h-70.9c-68,0-123.3-55.3-123.3-123.3v-231c0-68,55.3-123.3,123.3-123.3h70.9
								c68,0,123.3,55.3,123.3,123.3v231C810.8,1195.6,755.5,1250.9,687.4,1250.9z M616.6,846.1c-27.8,0-50.5,22.6-50.5,50.5v231
								c0,27.8,22.6,50.5,50.5,50.5h70.9c27.8,0,50.5-22.6,50.5-50.5v-231c0-27.8-22.6-50.5-50.5-50.5H616.6z"/>
						</g>
						<path class="st11" d="M1431,1054.6H780.8v-85.1H1431c23.5,0,42.5,19,42.5,42.5l0,0C1473.5,1035.6,1454.5,1054.6,1431,1054.6z"
							/>
						<path class="st11" d="M1383.5,1238.4L1383.5,1238.4c-18.9,0-34.1-15.3-34.1-34.1v-166.8h68.3v166.8
							C1417.7,1223.1,1402.4,1238.4,1383.5,1238.4z"/>
					</g>
					<path class="st9" d="M599.7,1245.7l11.1,4.1c0,0,22.2-15.7,36.1,9.8c0,0,5,11.2-2.9,13.6c-7.9,2.4-5,0.1-16.2,3.9
						c-11.1,3.7-22.1,1-26.3-6.9l-7.5-5.5L599.7,1245.7z"/>
					<path class="st10" d="M608.8,1261.4c4.1-10.7,6-15.6,6-15.6s-83.9-68.3-92.4-74.2c-5.8-4-63.8-47.3-92-81.1
						c-14-16.7-36.1-24.4-57.5-19.9l-17.6,3.7c-21.3,4.5-28.2,31.4-11.7,45.5c46.4,39.8,124.8,86,139.4,95.6
						c36.3,23.8,116.4,57.3,116.4,57.3S605.6,1269.8,608.8,1261.4z"/>
				</g>
				<path class="st5" d="M403.8,1032c-26.8,1.5-44.2-20.6-44.2-20.6s12.1-6.7,18.7-11.7l23,11.7
					C401.3,1011.4,402.8,1018.8,403.8,1032z"/>
				<path class="st9" d="M415.3,1004.5c0,0-40.6,29.2-58.4,3.6c-17.8-25.6-35-39-9.8-58.7c25.2-19.7,37.1-13.5,45.1-6.4
					C400.2,950.1,425.4,996.3,415.3,1004.5z"/>
				<path class="st7" d="M396.4,919.9c-1.5-9.8-4.7-16.8-4.7-16.8s-2.5,10.6-21.8,9.1c-19.3-1.5-49.9,1.9-60.1,23.9
					c-0.6,1.4-1.2,2.8-1.7,4.3c-1.8-4.9-2.3-12.2-2.3-12.2c-3.7,9.5,0,21.3,0,21.3h0c-0.1,0.3-0.1,0.7-0.2,1
					c-4.3,3.6-7.8,14.8-7.8,14.8c1.3-3.1,4.4-5.2,7.2-6.4c-0.1,17.1,6.9,33.8,19,38.8c17.8,7.3,17.7,1.7,35.6,13.6c0,0,4.8-6,1.5-10
					c-3.3-4-15.7-9.8-8.7-15.7c6.9-5.8,9.5,0.7,12-3.3c2.5-4-10.2-15.7,6.2-26.6C387,945,397.9,929.7,396.4,919.9z"/>
			</g>
			<g>
				<path class="st10" d="M1108,1686.1l-15,5.6c0,0-65-90.2-73-169.5c-1.4-14.2-1-27.9,2.1-40.6c0,0-0.6-3.6-1.7-10
					c-0.5-3-1.1-6.6-1.9-10.7c-2.1-12.1-5-28.7-8.3-47.5c-7.6-43.4-17.6-98.9-25.3-139.7l4-1.3l43.6-14.1l9-28.6l32.5-8.6
					c0,0,7.3,14.2,13.7,81.3c1.2,8.8,2.3,18.5,3.1,29c2.5,32.1,2.7,71.9-3.1,117.5c-1.5,11.7-3.4,23.7-5.7,36.1
					c-1.7,9.1-2,21.4-1.2,35.6C1084.2,1585.3,1108,1686.1,1108,1686.1z"/>
				<path class="st6" d="M1090.9,1331.3l-70.6,140.3c-0.5-3-1.1-6.6-1.9-10.7c-2.1-12.1-5-28.7-8.3-47.5
					c-7.6-43.4-17.6-98.9-25.3-139.7l4-1.3l43.6-14.1l9-28.6l32.5-8.6c0,0,7.3,14.2,13.7,81.3
					C1089,1311.1,1090.1,1320.8,1090.9,1331.3z"/>
				<path class="st10" d="M1059.9,1239l-1.6-14c-27.4,7.3-100.5-20.3-100.5-20.3s-26.5,23.3-23,79.2c1.7,27.3,4.8,143.1,8,177.4
					c1.2,12.4,2.2,21.3,2.6,24.8c0,0,0,0,0,0c0.1,1.1-0.2,2.1-0.8,3c-4.8,8.1-8.7,16.5-12,25.2c-31.8,84.8,4.9,189.2,4.9,189.2
					l9.5-3.8c0,0,20.9-116.2,37.9-167.5c2.9-8.7,5.6-15.5,8.2-19.6c7.4-11.9,14.2-31.4,20.4-54.5c11.7-43.8,21.2-100.7,27.5-144.6
					C1042,1313.4,1059.9,1239,1059.9,1239z"/>
				<path class="st12" d="M1226.9,1065.2c8.3,3.3,16.4,9.8,24.4,17.9c0,0-46.7,81.4-73.5,93.2c-14.7,6.5-60.9-42.8-70.4-70.4
					c-2.3-6.8,6.3-29.3,3.5-34.1c-3.7-6.3-5.5-12.4-6.3-17.7c-0.2-0.8-0.4-1.6-0.3-2.5c-0.9-8.4,0.8-14.1,0.8-14.1
					c1.1-2.7,4.1-3.9,8.6-3.9l1.6,0c24.2,14.2,55.9,84.1,61.2,85.7C1190,1102.1,1226.9,1065.2,1226.9,1065.2z"/>
				<path class="st4" d="M1112.2,1069.2c-8.6,4-19,6.7-31.5,7.4c-47,2.6-57.7-38.7-59.7-66c6.8-2.5,12.7-2.2,16.1-2
					c3.3,0.2,6.8,0.5,9.7,0.9c5.8-3,16.1-17.6,22.1-42l2,0.9l33.9,16c0,0-3.6,11-6.3,21.6c-2.1,8.3-3.6,16.3-2.3,18.5
					c2.7,1.1,4.3,1.8,4.3,1.8s0,0,0,0C1100.9,1027,1108.3,1045.8,1112.2,1069.2z"/>
				<path class="st8" d="M1123.9,1100c-0.4,0.9-0.7,1.9-1.2,2.8c-11.9,25.7-34,132-34,132c3.1,19.1-143.6-3.8-144-21.2
					c-5.2-18.5,18.3-48.1,31.6-63c1.7-1.9,3.2-3.9,4.4-6c3.3-5.3,5.4-11.3,6-17.5c2.6-24.7-7.1-81.6-4.5-92.5
					c1-4.3,20.5,20.3,22.8,17.8c2.6-2.7,4.2-5.4,4.3-8.5c0.1-2.3,0.1-4.8-0.2-7.2c-0.1-1.1-0.3-2.3-0.4-3.4
					c-1.8-11.9-24.7-6.8-24.7-6.8c8.4-20.1,52.9-18.5,52.9-18c0,0.5,0,1.2,0,3.3c-0.1,8.2,0,29.3,2.6,33.2c3.3,5,63.4,26.7,66.6,20
					c3.1-6.6-5.4-37.6-5.8-38.8c0,0,0,0,0,0c6.6,2.7,14.6,7.6,14.6,7.6C1122.7,1048.8,1133.3,1075.1,1123.9,1100z"/>
				<path class="st10" d="M1083.4,878.3c-0.1-2-1.7-24-35.1-25.2c0,0,16.5,2,19.3,9.2c0,0-11.2-8.9-20.3-6.1
					c-9.1,2.9-14.5,18.9-14.5,24.1c-0.1,5.3,5,22.2,10.8,23.7c2.2,0.5,4.7,0.4,7,0c-1.5,2.4-3.1,5.1-4.5,8
					c-13.4,27.4,0.4,54.2,11.7,51.3c7.3-1.9,9.3,10.5,9.3,10.5l70.5-57C1137.6,916.8,1111.7,863.2,1083.4,878.3z"/>
				<path class="st13" d="M1104.9,984.2c0,0-3.6,11-6.3,21.6c-19.8-5.5-25.9-26.4-27.7-37.6L1104.9,984.2z"/>
				<path class="st4" d="M1109.1,995.9c0,0-47.5-11-40.2-40.4c7.3-29.5,6.1-50.7,36.7-44.9c30.6,5.8,33.7,18.5,33.7,28.9
					C1139.2,949.8,1121.6,998,1109.1,995.9z"/>
				<path class="st10" d="M1141.9,922.7c-5.1-10.7-11.1-10.1-14.9-8.2c-22.3-20.6-44.2-3.8-44.2-3.8c-8.4,20.3-26.7,28.7-26.7,28.7
					s7.3,7.5,28.4,7.3c6.5-0.1,12.9-3,18.9-7.1c-11.4,11.5-24.8,18.5-24.8,18.5c26.5-5.1,44.2-35.7,46-38.9
					c2.2,3.3,6.5,10.4,6.9,16.3c0.5,8.1-2.3,23.8,2.3,24.4C1134,959.7,1149.6,938.7,1141.9,922.7z"/>
				<path class="st7" d="M993,1711.3h-75.4c0,0-1.8-11.5,2.1-20.2c3.8-8.4,9.7-12.2,8.3-22.3c4.8,4.9,12.6,10.5,23.5,9
					c1.3,2.2,8.6,13.8,13.1,17C969.5,1698.2,991.4,1697,993,1711.3z"/>
				<path class="st7" d="M1154.8,1711.3h-75.4c0,0-2.8-12,2.1-20.2c4.4-7.2,2.7-11.4-0.5-17.4c3.4,1.4,7.8,2.7,12.7,2.4
					c3.8-0.2,7.7-1.9,11.2-3.9c3.2,3.7,17.1,19.4,21.5,22.6C1131.3,1698.2,1153.3,1697,1154.8,1711.3z"/>
			</g>
			<polygon class="st11" points="1257.4,1054.6 1372.1,1054.6 1365.7,1010.1 1263.3,1014.2 			"/>
			<path class="st4" d="M1277.5,969.5c-5.3,5.3-5.2,22.4-16.5,30.4c-12.1,8.7-17,17.5-21.3,22c-1.6,1.8-2.6,2.8-2.6,2.8l-13-15.1
				c0,0,0.2-0.1,0.6-0.6c2.9-3.2,10.3-11,15.2-19.9c10.7-19.7,25.8-22.6,25.8-22.6S1273.3,966.3,1277.5,969.5z"/>
			<path class="st14" d="M1232.1,997.9l19.1,21.4c0,0-51.1,44.5-61.8,53.7c-7.6,6.5-14.7,11.7-20.6,14.7c-0.6,0.3-1.1,0.5-1.8,0.8
				c-15,6.6-47.4,5.8-79.8,1c-4.5-0.7-8.9-1.4-13.2-2.1c-16-2.8-31.1-6.4-43.7-10.6c-7.5-2.4-14.1-5-19.2-7.7
				c-1.8-0.9-3.5-1.8-5-2.8c-25.3-15.2-24.1-29.3-23.6-34.3c0.5-5.1,4.1-11.7,12.6-14.5c20.1-6.5,87.5,19.5,97.4,21.3
				c6,1.3,21.5,6.7,26.7,7.7c10,1.8,18.2,2.9,23.9,3c3.7,0,10.1-2.2,17.9-5.7C1174.6,1037.9,1232.1,997.9,1232.1,997.9z"/>
			<path class="st4" d="M1239.6,1062.4c-1.6-2.6-1.7-6.9-1.7-6.9c2.2-5.7,7.1-12,8.9-13.3c1.8-1.3,4.2-4.3,4.8-2.3
				c0.6,2-2.2,12.7-5.3,17C1243,1061.1,1239.6,1062.4,1239.6,1062.4z"/>
		</g>
		<g>
			<path class="st15" d="M2376.3,805.7c16.1,28,36.3,38.8,36.3,38.8h84.2C2496.8,844.5,2364,784.3,2376.3,805.7z"/>
			<g>
				<path class="st4" d="M2435.9,1023.7c2.2,2.5,4.1,2.4,3,5.4c0,0-0.5,1.5-0.5,1.5c-2,5.5-5.8,9.4-13.5,15.6c-1,0.8-2,1.5-2.8,2.1
					c-0.2,0.2-1.6,0.4-1.8,0.6c-0.2,0.1-1.4,2.6-1.5,2.7c-7.2,6.6-5.7,4.7-18.6,18.1c-14.7,15.3-14.3,13.7-17.2,12.3
					c-2.4-1.2-3.4-4,2-13.2c0.3-0.4,0.5-0.9,0.8-1.3c0.7-1.2,1.5-2.4,2.2-3.7c6.4-11,4.8-16.1,3.3-32.5
					c-1.2-13.3-20.7-74.2-20.7-74.2l28.2-4.9c0,0,8.5,48.5,17.8,56c5,4,10.6,4,15.4,7c0.3,0.2,0.7,0.4,1,0.6
					C2436,1017.9,2433.7,1021.2,2435.9,1023.7z"/>
				<path class="st10" d="M2440.9,1022.3c2.2,2.5,2.5,5.3,1.4,8.3c0,0,0,0,0,0c-2.5,5.5-8.9,11.7-16.4,17.9c-1,0.8-1.8,1.5-2.6,2.2
					c-0.2,0.2-0.4,0.4-0.6,0.5c-0.2,0.1-0.3,0.3-0.5,0.4c-7.2,6.6-4.5,8.1-17.4,21.6c-14.7,15.3-24.8,15.6-27.7,14.2
					c-2.4-1.2,2.5-9.3,8-18.4c2.9-1,16.2-6.5,26.2-19.3c8.9-11.3,14.8-25.8,20.8-34.3c0.3,0.2,0.7,0.4,1,0.6
					C2436,1017.9,2438.7,1019.7,2440.9,1022.3z"/>
				<path class="st4" d="M2208.3,1003c-1.7,8.7-7.4,6.3-21.3,2.9c-13.9-3.4-10.6-0.1-30.4-2.3c-19.7-2.2-21.5-5.3-22.1-8.3
					c-0.5-2.6,3.6-4.4,14-5.6c1.3-0.1,2.6-0.3,4-0.5c11.8-1.5,20.5-9.1,31.2-15.4c10.2-5.9,25.3-30.1,25.3-30.1l27.1,2.1
					c0,0-14.2,21.6-19.7,30.9c-3.2,5.5-3.1,12.8-2.7,18.4C2214,998.4,2208.9,999.9,2208.3,1003z"/>
				<path class="st10" d="M2185.5,1008.5c-13.9-3.4-10.6,0.6-30.3-1.5c-19.7-2.2-25.7-9.5-26.3-12.5c-0.5-2.6,9.2-3.5,19.7-4.7
					l0.1,0.2c0,0,11.8,8.4,28.3,8.8c13.4,0.3,27.6-3.5,36.8-3.4c0.2,3.1,0.4,6.2-0.2,9.3C2211.8,1013.3,2199.4,1011.9,2185.5,1008.5
					z"/>
				<path class="st15" d="M2317.2,831.6l25.3,68.1l33,88.9c0,0,9,0.9,17.5-1.6c7.9-2.3,17-8.3,17-8.3s-9.2-95.4-26.3-150.2
					c-4.4-14.1-9.3-25.4-14.7-31.8C2342.6,765.3,2317.2,831.6,2317.2,831.6z"/>
				<path class="st11" d="M2343,723.5c16.6-5.3,63.8,1.5,111.3,10.8l9.9-16.4l102.5-8c0,0,33.8,75,15.3,122.9
					c-4.5,11.6-19.2,11.6-19.2,11.6c0,0-60.7,0-80.5,0c-51,0-107.9-35.1-115.3-36.5c-12.1-2.4-16.9,21.7-28.9,47
					c-12.1,25.3-113.3,112.1-113.3,112.1s-15.6,0.2-22-2.3c-6.9-2.6-9.4-6-9.4-6S2305.6,735.6,2343,723.5z"/>
				<path class="st7" d="M2464.8,576.7c36.5,20.1,110.6,61.8,111,61.5c0,0,27.2,10.3,42.7,0c25.7-17.1,39.6-63.1-7.5-102.7
					c-23.5-19.8-40.2-24.6-42.7-56.1c-1.4-17.1-24.8-73.6-63.6-68.4c-3.2,0.4-6.5,0.7-9.8,0.6c-4.5-0.1-12,0.5-19.7,5.1
					C2453.1,429.9,2410.1,569,2464.8,576.7z"/>
				<path class="st4" d="M2495.4,559.6c-0.2,0.1,18,6.3,30.1,0.9c11.4-5,20-23.8,19.9-23.8c-5.2-0.2-10.9-4.8-15.3-34.5l-2.2,0.8
					l-37.1,13.4c0,0,2.7,11.9,4.4,23.3C2496.7,549.2,2497.4,558.3,2495.4,559.6z"/>
				<path class="st16" d="M2490.8,516.4c0,0,2.7,11.9,4.4,23.3c21.3-3.8,29.7-25.1,32.7-36.6L2490.8,516.4z"/>
				<path class="st4" d="M2485.2,528.2c0,0,50.8-6.8,46.1-38.4c-4.7-31.6-1.4-53.7-34-50.7c-32.6,3-37.1,16-38.1,26.9
					C2458.2,477,2471.9,529.2,2485.2,528.2z"/>
				<path class="st7" d="M2461,448.7c0,0,32.5,28,54.7,30.3c22.1,2.3,30.5-4.8,30.5-4.8s-13-10.8-20.9-28.3
					c-2.3-5.2-7.2-8.7-12.8-9.2C2496.7,435.3,2466.7,434.7,2461,448.7z"/>
				<path class="st7" d="M2481.4,446.2c0,0-10.9,10.5-14.3,18.3c-3.3,7.5-4.3,25.5-1.7,32.7c0,0-17-33-7.4-49
					C2468.2,431.3,2481.4,446.2,2481.4,446.2z"/>
				<path class="st10" d="M2452.6,634.5c1.5,102.9,0.4,81.4,11.7,91.1c2.7,2.3,10.3,3.8,20.4,4.4c31.5,2.1,87-3.1,89.1-8.9
					c7.3-20.2,2.1-26.4,8.2-57.3c0.6-3.3,1.4-6.8,2.3-10.7c5.1-21.2,10-28.4-8-62.5c-16.3-30.9-33.2-55.9-34.7-55
					c-43,25.5-46.4,4.1-46.4,4.1S2451.9,584.3,2452.6,634.5z"/>
				<path class="st11" d="M2342.5,899.7l33,88.9c0,0,9,0.9,17.5-1.6c7.9-2.3,17-8.3,17-8.3s-9.2-95.4-26.3-150.2L2342.5,899.7z"/>
				<path class="st10" d="M2495.2,539.6c0,0-44.2,7.5-49.4,26.5c-5.2,19-35.7,130.9-35.7,130.9s22.5,4,32.9-6.3
					c10.4-10.4,36.1-96.3,36.1-96.3L2495.2,539.6z"/>
				<path class="st6" d="M2484.7,730c31.5,2.1,87-3.1,89.1-8.9c7.3-20.2,2.1-26.4,8.2-57.3l-15.2-42.8c0,0,2.5,47.7-11.6,60.2
					c-14.1,12.5-57.6,24.2-64.4,34.7C2487.5,720.9,2485.3,726,2484.7,730z"/>
				<path class="st4" d="M2520.8,710c0,0-31.1-6.9-36.1-4.2c-5,2.8-17.3,12.8-18.8,16.3c-1.5,3.5,11.2-2.7,15.3-3.8
					c2.7-0.7,9.7,1.7,13.2,2.9c14.7,4.9,23.7,2.4,23.7,2.4L2520.8,710z"/>
				<path class="st10" d="M2541.6,535.5c0,0,41.8,2.6,56.2,22.7c20.4,28.4,60.7,149.4,37.6,165.6c-26.1,18.2-118.6,4.8-118.6,4.8
					s-3.1-14.4,1.2-21.4c4.3-7,73.9-18.2,77.2-21.4c3.2-3.2-40.2-62.7-40.2-72.3S2541.6,535.5,2541.6,535.5z"/>
				<path class="st4" d="M2483.2,714.4c0,0-6.5,8.4-8.7,9.4s-3.5,0.8-3.5,0.8l4.4-7.9L2483.2,714.4z"/>
				<path class="st4" d="M2484.7,705.8l-19,9.2c0,0,0.8,1.3,3.1,1.2c2.3-0.1,8.2-2.3,8.2-2.3L2484.7,705.8z"/>
			</g>
			<g>
				<g>
					<polygon class="st17" points="2474.5,736.7 2324.6,736.7 2279.5,624.6 2429.2,624.6 					"/>
					<polygon class="st18" points="2322.8,732.4 2520.8,732.4 2520.8,736.7 2324.6,736.7 					"/>
				</g>
				<path class="st0" d="M2362.4,680.7c-1.1-3.9,1.1-7.1,5.1-7.1s8.1,3.2,9.2,7.1c1.1,3.9-1.1,7.1-5.1,7.1
					S2363.5,684.6,2362.4,680.7z"/>
			</g>
		</g>
	</g>
	<path class="st19" d="M3072.2,1715.8H198.8c-2.1,0-3.8-1.7-3.8-3.8l0,0c0-2.1,1.7-3.8,3.8-3.8h2873.4c2.1,0,3.8,1.7,3.8,3.8l0,0
		C3076,1714.1,3074.3,1715.8,3072.2,1715.8z"/>
</g>
</svg>
